<svg width="52" height="31" viewBox="0 0 52 31" fill="none" xmlns="http://www.w3.org/2000/svg">
<path d="M19.8182 10.3125C19.6193 9.62121 19.34 9.01042 18.9801 8.48011C18.6203 7.94034 18.1799 7.4858 17.6591 7.11648C17.1477 6.73769 16.5606 6.44886 15.8977 6.25C15.2443 6.05114 14.5199 5.9517 13.7244 5.9517C12.2377 5.9517 10.9309 6.32102 9.80398 7.05966C8.68655 7.79829 7.81534 8.87311 7.19034 10.2841C6.56534 11.6856 6.25284 13.3996 6.25284 15.4261C6.25284 17.4527 6.56061 19.1761 7.17614 20.5966C7.79167 22.017 8.66288 23.1013 9.78977 23.8494C10.9167 24.5881 12.2472 24.9574 13.7812 24.9574C15.1733 24.9574 16.3617 24.7112 17.3466 24.2188C18.3409 23.7169 19.0985 23.0114 19.6193 22.1023C20.1496 21.1932 20.4148 20.1184 20.4148 18.8778L21.6648 19.0625H14.1648V14.4318H26.3381V18.0966C26.3381 20.6534 25.7983 22.8504 24.7188 24.6875C23.6392 26.5152 22.1525 27.9261 20.2585 28.9205C18.3646 29.9053 16.196 30.3977 13.7528 30.3977C11.0256 30.3977 8.62974 29.7964 6.56534 28.5938C4.50095 27.3816 2.8911 25.6629 1.7358 23.4375C0.589962 21.2027 0.0170455 18.5511 0.0170455 15.483C0.0170455 13.125 0.357955 11.0227 1.03977 9.17614C1.73106 7.32008 2.69697 5.74811 3.9375 4.46023C5.17803 3.17235 6.62216 2.19223 8.26989 1.51989C9.91761 0.847537 11.7027 0.511363 13.625 0.511363C15.2727 0.511363 16.8068 0.75284 18.2273 1.2358C19.6477 1.70928 20.9072 2.38163 22.0057 3.25284C23.1136 4.12405 24.018 5.16098 24.7188 6.36364C25.4195 7.55682 25.8693 8.87311 26.0682 10.3125H19.8182ZM40.7024 30.4261C38.496 30.4261 36.5878 29.9574 34.978 29.0199C33.3776 28.0729 32.1418 26.7566 31.2706 25.071C30.3994 23.3759 29.9638 21.411 29.9638 19.1761C29.9638 16.9223 30.3994 14.9527 31.2706 13.267C32.1418 11.572 33.3776 10.2557 34.978 9.31818C36.5878 8.37121 38.496 7.89773 40.7024 7.89773C42.9089 7.89773 44.8123 8.37121 46.4126 9.31818C48.0225 10.2557 49.263 11.572 50.1342 13.267C51.0054 14.9527 51.4411 16.9223 51.4411 19.1761C51.4411 21.411 51.0054 23.3759 50.1342 25.071C49.263 26.7566 48.0225 28.0729 46.4126 29.0199C44.8123 29.9574 42.9089 30.4261 40.7024 30.4261ZM40.7308 25.7386C41.7346 25.7386 42.5727 25.4545 43.245 24.8864C43.9174 24.3087 44.424 23.5227 44.7649 22.5284C45.1153 21.5341 45.2905 20.4025 45.2905 19.1335C45.2905 17.8646 45.1153 16.733 44.7649 15.7386C44.424 14.7443 43.9174 13.9583 43.245 13.3807C42.5727 12.803 41.7346 12.5142 40.7308 12.5142C39.7176 12.5142 38.8653 12.803 38.174 13.3807C37.4922 13.9583 36.9761 14.7443 36.6257 15.7386C36.2848 16.733 36.1143 17.8646 36.1143 19.1335C36.1143 20.4025 36.2848 21.5341 36.6257 22.5284C36.9761 23.5227 37.4922 24.3087 38.174 24.8864C38.8653 25.4545 39.7176 25.7386 40.7308 25.7386Z" fill="#6C63FF"/>
</svg>
